<svg width="16" height="15" viewBox="0 0 16 15" fill="none" xmlns="http://www.w3.org/2000/svg">
<path d="M15.6214 3.28618L13.7475 1.84231C13.6202 1.76057 13.4818 1.69759 13.3365 1.65532C13.1918 1.60849 13.0411 1.58246 12.8891 1.578H7.4955L8.12749 5.523H12.8891C13.0185 5.523 13.1802 5.49381 13.3357 5.44568C13.4911 5.39755 13.641 5.33127 13.7467 5.25947L15.6206 3.81403C15.7271 3.74223 15.78 3.64676 15.78 3.5505C15.78 3.45424 15.7271 3.35877 15.6214 3.28618ZM6.7065 0H5.9175C5.81287 0 5.71253 0.0415633 5.63855 0.115546C5.56456 0.189529 5.523 0.289872 5.523 0.3945V3.156H2.8909C2.75992 3.156 2.59897 3.18519 2.44353 3.23411C2.28731 3.28145 2.13819 3.34694 2.03246 3.42031L0.158589 4.86418C0.052074 4.93598 0 5.03224 0 5.1285C0 5.22397 0.052074 5.31944 0.158589 5.39281L2.03246 6.83826C2.13819 6.91006 2.28731 6.97634 2.44353 7.02368C2.59897 7.07181 2.75992 7.101 2.8909 7.101H5.523V13.8075C5.523 13.9121 5.56456 14.0125 5.63855 14.0865C5.71253 14.1604 5.81287 14.202 5.9175 14.202H6.7065C6.81113 14.202 6.91147 14.1604 6.98545 14.0865C7.05944 14.0125 7.101 13.9121 7.101 13.8075V0.3945C7.101 0.289872 7.05944 0.189529 6.98545 0.115546C6.91147 0.0415633 6.81113 0 6.7065 0Z" fill="black"/>
</svg>
