<svg width="18" height="14" viewBox="0 0 18 14" fill="none" xmlns="http://www.w3.org/2000/svg">
<path d="M17.78 12.1347V3.03367C17.78 3.03367 9.6901 9.45493 8.90334 9.78813C8.12991 9.4701 0 3.03367 0 3.03367V12.1347C0 13.3987 0.235585 13.6515 1.3335 13.6515H16.4465C17.5706 13.6515 17.78 13.4295 17.78 12.1347ZM17.7671 1.24936C17.7671 0.328647 17.5311 0 16.4465 0H1.3335C0.217805 0 0 0.394377 0 1.31459L0.013335 1.45616C0.013335 1.45616 8.04501 7.74596 8.90334 8.08978C9.81012 7.69035 17.78 1.31459 17.78 1.31459L17.7671 1.24936Z" fill="black"/>
</svg>
