<svg width="14" height="14" viewBox="0 0 14 14" fill="none" xmlns="http://www.w3.org/2000/svg">
<path d="M13.841 11.5066V11.5036C13.841 11.5036 11.1884 8.85889 11.1868 8.85761C10.9765 8.64758 10.6402 8.65213 10.4333 8.85901L9.2123 10.0828C8.73764 10.5567 8.12558 10.1361 6.95073 9.1799C6.17343 8.54723 5.2791 7.69647 4.50367 6.73731C3.95949 6.06434 3.47827 5.35762 3.97541 4.8615C3.97669 4.86022 5.20139 3.64091 5.20116 3.63963L5.2021 3.63706C5.42187 3.41768 5.40058 3.0816 5.19987 2.88103V2.878C5.19987 2.878 2.47066 0.157153 2.46913 0.155518C2.25883 -0.054398 1.92261 -0.0497254 1.71559 0.156919L0.485622 1.38464C-0.02111 2.01766 -1.14727 5.03462 3.68073 9.97447C8.76678 15.1787 12.0487 14.0654 12.6137 13.4782C12.6137 13.4782 13.8424 12.2663 13.8424 12.2651L13.8435 12.2626C14.0632 12.0431 14.0416 11.7073 13.841 11.5066Z" fill="black"/>
</svg>
